<svg width="32" height="32" viewBox="0 0 32 32" fill="none" xmlns="http://www.w3.org/2000/svg">
<path d="M23.5531 0.331696H8.03659C3.75402 0.331696 0.27832 3.79188 0.27832 8.05893V17.3378V18.8895C0.27832 23.1565 3.75402 26.6167 8.03659 26.6167H10.3641C10.783 26.6167 11.3416 26.896 11.6054 27.2374L13.9329 30.3252C14.957 31.6906 16.6327 31.6906 17.6568 30.3252L19.9843 27.2374C20.2791 26.8494 20.7446 26.6167 21.2256 26.6167H23.5531C27.8357 26.6167 31.3114 23.1565 31.3114 18.8895V8.05893C31.3114 3.79188 27.8357 0.331696 23.5531 0.331696ZM9.58824 15.8482C8.71931 15.8482 8.03659 15.15 8.03659 14.2966C8.03659 13.4432 8.73483 12.7449 9.58824 12.7449C10.4416 12.7449 11.1399 13.4432 11.1399 14.2966C11.1399 15.15 10.4572 15.8482 9.58824 15.8482ZM15.7949 15.8482C14.9259 15.8482 14.2432 15.15 14.2432 14.2966C14.2432 13.4432 14.9414 12.7449 15.7949 12.7449C16.6483 12.7449 17.3465 13.4432 17.3465 14.2966C17.3465 15.15 16.6638 15.8482 15.7949 15.8482ZM22.0015 15.8482C21.1325 15.8482 20.4498 15.15 20.4498 14.2966C20.4498 13.4432 21.1481 12.7449 22.0015 12.7449C22.8549 12.7449 23.5531 13.4432 23.5531 14.2966C23.5531 15.15 22.8704 15.8482 22.0015 15.8482Z" fill="white"/>
</svg>
