<svg width="103" height="103" viewBox="0 0 103 103" fill="none" xmlns="http://www.w3.org/2000/svg">
<path d="M51.5875 102.277C79.7595 102.277 102.597 79.4392 102.597 51.2673C102.597 23.0953 79.7595 0.257355 51.5875 0.257355C23.4155 0.257355 0.577637 23.0953 0.577637 51.2673C0.577637 79.4392 23.4155 102.277 51.5875 102.277Z" fill="#8B54D6"/>
<path d="M75.7097 57.2474C72.0652 61.6369 66.8232 66.1003 60.7624 71.2751C58.7019 73.0336 56.3461 75.0338 53.9097 77.1614C53.2671 77.7245 52.4418 78.0349 51.5874 78.0349C50.733 78.0349 49.9077 77.7245 49.2651 77.1614C46.8287 75.0338 44.4728 73.0336 42.4123 71.2751C36.3717 66.1003 31.1096 61.6369 27.4651 57.2474C23.3977 52.3411 21.4983 47.6696 21.4983 42.5955C21.4153 37.8653 23.1194 33.2779 26.2704 29.749C27.7992 28.0814 29.6607 26.7527 31.7346 25.8486C33.8086 24.9446 36.049 24.4853 38.3114 24.5004C41.7422 24.486 45.0756 25.6413 47.7616 27.7758C49.2243 28.9112 50.5132 30.2543 51.5874 31.7626C52.6653 30.2575 53.9537 28.9149 55.4131 27.7758C58.0992 25.6413 61.4325 24.486 64.8634 24.5004C67.1249 24.4846 69.3645 24.9436 71.4375 25.8477C73.5105 26.7518 75.3706 28.0809 76.8977 29.749C80.0511 33.2769 81.7576 37.8644 81.6765 42.5955C81.6765 47.6696 79.7771 52.3411 75.7097 57.2474Z" fill="white"/>
</svg>
