<svg width="24" height="26" viewBox="0 0 24 26" fill="none" xmlns="http://www.w3.org/2000/svg">
<path d="M4.38059 21.3606C3.6611 21.3606 2.9888 21.1128 2.50521 20.6528C1.89187 20.0748 1.597 19.202 1.70315 18.2584L2.13957 14.4369C2.22213 13.7174 2.65854 12.762 3.16572 12.2431L12.8493 1.99337C15.2673 -0.566121 17.7914 -0.63689 20.3509 1.78106C22.9103 4.19901 22.9811 6.72311 20.5632 9.2826L10.8796 19.5323C10.3842 20.063 9.46418 20.5584 8.74469 20.6765L4.94674 21.3251C4.74623 21.3369 4.56931 21.3606 4.38059 21.3606ZM16.6355 1.76926C15.7273 1.76926 14.937 2.33542 14.135 3.18465L4.45136 13.4462C4.21546 13.6939 3.94418 14.2837 3.897 14.6257L3.46059 18.4472C3.41341 18.8364 3.50777 19.1548 3.72008 19.3554C3.93239 19.5559 4.25085 19.6266 4.64008 19.5677L8.43803 18.9191C8.78008 18.8601 9.34623 18.5533 9.58213 18.3056L19.2657 8.05593C20.7283 6.49901 21.2591 5.06003 19.1242 3.05491C18.1806 2.1467 17.3668 1.76926 16.6355 1.76926Z" fill="white"/>
<path d="M18.299 11.252C18.2754 11.252 18.24 11.252 18.2165 11.252C14.5365 10.8864 11.5759 8.09108 11.0098 4.43467C10.939 3.95108 11.2693 3.50287 11.7529 3.42031C12.2365 3.34954 12.6847 3.6798 12.7672 4.16339C13.2154 7.01775 15.5272 9.21159 18.4052 9.49467C18.8888 9.54185 19.2426 9.97826 19.1954 10.4618C19.1365 10.91 18.7472 11.252 18.299 11.252Z" fill="white"/>
<path d="M22.6154 25.1701H1.38462C0.901026 25.1701 0.5 24.7691 0.5 24.2855C0.5 23.8019 0.901026 23.4009 1.38462 23.4009H22.6154C23.099 23.4009 23.5 23.8019 23.5 24.2855C23.5 24.7691 23.099 25.1701 22.6154 25.1701Z" fill="white"/>
</svg>
