<svg width="119" height="121" viewBox="0 0 119 121" fill="none" xmlns="http://www.w3.org/2000/svg">
<circle cx="59.5" cy="60.1946" r="57.8188" stroke="white" stroke-width="2.36242"/>
<g clip-path="url(#clip0_868_3336)">
<mask id="mask0_868_3336" style="mask-type:luminance" maskUnits="userSpaceOnUse" x="0" y="0" width="119" height="119">
<path d="M118.399 0.871094H0.5V118.768H118.399V0.871094Z" fill="white"/>
</mask>
<g mask="url(#mask0_868_3336)">
<path d="M0.5 56.0613C0.5 55.6763 0.5 55.2914 0.5 54.9103C0.577751 54.7236 0.702153 54.541 0.725479 54.3465C0.970395 52.3714 0.974282 50.334 1.47578 48.429C2.44378 44.7507 3.54008 41.0882 4.85795 37.523C7.44319 30.54 11.6106 24.5095 16.6528 19.0895C18.2778 17.3399 20.1322 15.7924 21.9399 14.2217C24.91 11.6439 28.1873 9.49766 31.6548 7.66248C36.2889 5.20912 41.1522 3.32341 46.3034 2.29695C49.0867 1.74095 51.9013 1.27827 54.7276 0.998331C56.7841 0.796149 58.8796 0.870024 60.9516 0.978889C63.6689 1.12275 66.3865 1.32882 69.0844 1.66708C74.6552 2.36304 79.923 4.16322 84.9729 6.54273C90.1743 8.9922 94.9562 12.161 99.139 16.0996C101.818 18.623 104.376 21.3446 106.611 24.2607C111.183 30.2289 114.514 36.9009 116.376 44.1987C117.278 47.7331 117.811 51.3722 118.277 54.996C118.538 56.9944 118.293 59.0589 118.32 61.0923C118.367 64.3196 117.998 67.4922 117.418 70.6649C116.447 76.0033 114.744 81.077 112.337 85.9254C110.059 90.5173 107.233 94.736 103.831 98.5889C100.605 102.248 97.0127 105.459 93.0122 108.251C88.8721 111.14 84.4362 113.465 79.7207 115.214C75.4911 116.785 71.1176 117.862 66.6081 118.321C65.6244 118.422 64.6486 118.616 63.673 118.768H54.9103C54.7588 118.69 54.611 118.562 54.4515 118.542C52.399 118.302 50.3191 118.216 48.3016 117.812C43.6481 116.878 39.1346 115.44 34.8156 113.453C29.1473 110.844 24.0431 107.353 19.4208 103.185C16.058 100.152 13.2123 96.641 10.6388 92.9162C7.89025 88.9389 5.69379 84.6659 4.04156 80.1439C2.52153 75.9915 1.33971 71.7302 0.958732 67.2861C0.884869 66.3879 0.65939 65.4937 0.5 64.5917C0.5 64.2068 0.5 63.8219 0.5 63.4408V56.0613ZM58.9456 66.9206C55.4507 66.9206 51.948 66.7846 48.4609 66.9673C46.1323 67.0917 43.7491 67.4261 41.5255 68.1065C37.1947 69.4361 33.8631 72.2277 31.4061 76.0304C29.785 78.5381 28.7627 81.3142 28.4516 84.2576C28.2144 86.4892 28.0084 88.9155 29.5828 90.7934C30.9435 92.4187 32.4752 93.9737 34.1819 95.2179C38.6447 98.4724 43.5858 100.825 48.9857 102.081C51.3455 102.629 53.7518 103.13 56.1582 103.274C59.7152 103.488 63.2762 103.286 66.8219 102.664C70.6317 101.995 74.352 101.046 77.7381 99.211C80.9297 97.4809 84.0126 95.5136 86.9945 93.4373C88.802 92.1775 90.1861 90.354 90.3922 88.0522C90.6565 85.144 90.3688 82.2436 89.257 79.5024C87.8301 75.9799 85.6415 73.0599 82.5237 70.7853C78.6632 67.9665 74.3133 66.9789 69.6636 66.9206C66.091 66.8779 62.5182 66.9128 58.9456 66.9128V66.9206ZM78.8926 37.97C79.1843 27.4685 70.1884 17.8492 58.2225 18.4674C48.3754 18.9768 40.3243 27.0911 39.9665 37.0057C39.5311 48.9617 48.838 56.9748 58.3002 57.4261C70.103 57.9858 79.1843 48.4016 78.8926 37.9662V37.97Z" fill="white"/>
</g>
</g>
<defs>
<clipPath id="clip0_868_3336">
<rect width="118" height="120.36" fill="white" transform="translate(0.5 0.407227)"/>
</clipPath>
</defs>
</svg>
